<?xml version="1.0" encoding="UTF-8" standalone="no"?>
<!-- Created with Inkscape (http://www.inkscape.org/) -->
<svg id="svg2" xmlns:rdf="http://www.w3.org/1999/02/22-rdf-syntax-ns#" xmlns="http://www.w3.org/2000/svg" height="18mm" viewBox="0 0 226.77165 63.779527" width="64mm" version="1.1" xmlns:cc="http://creativecommons.org/ns#" xmlns:dc="http://purl.org/dc/elements/1.1/">
 <defs id="defs4">
  <marker id="b" refY="0" refX="0" overflow="visible" orient="auto">
   <path id="path9280-9-2" d="m5.77,0-8.65,5v-10l8.65,5z" fill-rule="evenodd" transform="scale(.4)" stroke="#04a" stroke-width="1pt" fill="#04a"/>
  </marker>
  <marker id="d" refY="0" refX="0" overflow="visible" orient="auto">
   <path id="path9198" d="m5.77,0-8.65,5v-10l8.65,5z" fill-rule="evenodd" transform="scale(.4)" stroke="#04a" stroke-width="1pt" fill="#04a"/>
  </marker>
  <marker id="a" refY="0" refX="0" overflow="visible" orient="auto">
   <path id="path9368" d="m5.77,0-8.65,5v-10l8.65,5z" fill-rule="evenodd" transform="scale(.4)" stroke="#04a" stroke-width="1pt" fill="#04a"/>
  </marker>
  <marker id="c" refY="0" refX="0" overflow="visible" orient="auto">
   <path id="path9280-9" d="m5.77,0-8.65,5v-10l8.65,5z" fill-rule="evenodd" transform="scale(.4)" stroke="#04a" stroke-width="1pt" fill="#04a"/>
  </marker>
 </defs>
 <metadata id="metadata7">
  <rdf:RDF>
   <cc:Work rdf:about="">
    <dc:format>image/svg+xml</dc:format>
    <dc:type rdf:resource="http://purl.org/dc/dcmitype/StillImage"/>
    <dc:title/>
   </cc:Work>
  </rdf:RDF>
 </metadata>
 <flowRoot id="flowRoot3336" style="letter-spacing:0px;word-spacing:0px;" xml:space="preserve" transform="translate(-139.27,-79.885)" font-size="27.5px" font-family="Sans" line-height="125%" fill="#000000"><flowRegion id="flowRegion3338"><rect id="rect3340" y="181.61" x="39.396" height="186.88" width="570.74"/></flowRegion><flowPara id="flowPara3342"/></flowRoot>
 <g id="g3098">
  <g id="text3344" style="letter-spacing:0px;word-spacing:0px;" transform="translate(3.4152358,0.09828296)" font-size="55.09799957px" font-family="URW Gothic" line-height="125%" fill="#000">
   <path id="path3088" d="m25.565,19.222,0-16.303,4.9502,0,0,41.862-4.9502,0,0-4.5198c-1.0403,1.7936-2.3585,3.1298-3.9548,4.0086-1.5783,0.86091-3.4795,1.2914-5.7035,1.2914-3.6409,0-6.6093-1.4528-8.905-4.3583-2.277-2.906-3.4159-6.727-3.4159-11.462-0.000003-4.735,1.1389-8.5552,3.4167-11.461,2.2957-2.9055,5.2641-4.3583,8.905-4.3583,2.224,0.000031,4.1252,0.43945,5.7035,1.3183,1.5962,0.86093,2.9145,2.1882,3.9548,3.9817m-16.868,10.519c-0.0000082,3.6409,0.74432,6.5016,2.233,8.5822,1.5066,2.0626,3.5692,3.0939,6.1878,3.0939,2.6186,0.000003,4.6812-1.0313,6.1878-3.0939,1.5066-2.0805,2.2599-4.9412,2.2599-8.5822-0.000025-3.6409-0.75332-6.4926-2.2599-8.5553-1.5066-2.0805-3.5692-3.1208-6.1878-3.1208-2.6186,0.000027-4.6812,1.0403-6.1878,3.1208-1.4887,2.0626-2.233,4.9144-2.233,8.5553"/>
   <path id="path3090" d="m115.02,15.806,0,4.6274c-1.399-0.7712-2.8069-1.3451-4.2238-1.7218-1.399-0.39456-2.8159-0.59185-4.2507-0.59187-3.2105,0.000026-5.7035,1.0224-7.4791,3.067-1.7756,2.0267-2.6634,4.8785-2.6634,8.5553-0.000008,3.6768,0.8878,6.5375,2.6634,8.5822,1.7756,2.0267,4.2686,3.0401,7.4791,3.0401,1.4348,0.000004,2.8517-0.18832,4.2507-0.56497,1.4169-0.39458,2.8248-0.97748,4.2238-1.7487v4.5736c-1.3811,0.64568-2.8159,1.1299-4.3045,1.4528-1.4707,0.32284-3.0401,0.48426-4.7081,0.48426-4.5377,0-8.1427-1.4259-10.815-4.2776-2.6724-2.8517-4.0086-6.6989-4.0086-11.542-0.000003-4.9143,1.3452-8.7794,4.0355-11.595,2.7083-2.8159,6.4119-4.2238,11.111-4.2238,1.5245,0.000031,3.0132,0.16145,4.466,0.48426,1.4528,0.30493,2.8607,0.77126,4.2238,1.399"/>
   <path id="path3092" d="m135.36,18.119c-2.6545,0.000026-4.7529,1.0403-6.2954,3.1208-1.5425,2.0626-2.3137,4.8964-2.3137,8.5014-0.00001,3.6051,0.76225,6.4478,2.2868,8.5284,1.5424,2.0626,3.6499,3.0939,6.3223,3.0939,2.6365,0.000004,4.726-1.0403,6.2685-3.1208,1.5424-2.0805,2.3137-4.9143,2.3137-8.5014-0.00003-3.5692-0.77126-6.394-2.3137-8.4745-1.5425-2.0984-3.632-3.1477-6.2685-3.1477m0-4.1969c4.3045,0.000031,7.6854,1.399,10.143,4.1969,2.4571,2.798,3.6857,6.672,3.6858,11.622-0.00003,4.9323-1.2286,8.8064-3.6858,11.622-2.4572,2.7979-5.838,4.1969-10.143,4.1969-4.3225,0-7.7123-1.399-10.169-4.1969-2.4392-2.8159-3.6588-6.6899-3.6588-11.622,0-4.9502,1.2196-8.8243,3.6588-11.622,2.4572-2.7979,5.847-4.1969,10.169-4.1969"/>
   <path id="path3094" d="m182.41,26.594,0,18.187-4.9502,0,0-18.025c-0.00003-2.8517-0.55603-4.9861-1.668-6.403s-2.78-2.1253-5.004-2.1254c-2.6724,0.000027-4.7798,0.85196-6.3223,2.5558-1.5425,1.7039-2.3137,4.0266-2.3137,6.968v17.03h-4.9771v-30.132h4.9771v4.6812c1.1837-1.8115,2.5737-3.1656,4.17-4.0624,1.6142-0.89675,3.4705-1.3451,5.569-1.3452,3.4615,0.000031,6.0801,1.0762,7.8558,3.2284,1.7756,2.1344,2.6634,5.282,2.6634,9.4431"/>
   <path id="path3096" d="m218.11,28.477,0,2.4213-22.76,0c0.21522,3.4078,1.2375,6.0084,3.067,7.802,1.8474,1.7756,4.4121,2.6634,7.6944,2.6634,1.9012,0.000004,3.7395-0.23316,5.5152-0.69949,1.7935-0.46632,3.5692-1.1658,5.3269-2.0985v4.6812c-1.7756,0.75329-3.5961,1.3272-5.4614,1.7218-1.8653,0.39458-3.7575,0.59187-5.6766,0.59187-4.8067,0-8.618-1.399-11.434-4.1969-2.798-2.7979-4.1969-6.5823-4.1969-11.353,0-4.9323,1.3272-8.8422,3.9817-11.73,2.6724-2.9055,6.2685-4.3583,10.788-4.3583,4.0534,0.000031,7.2549,1.3093,9.6045,3.9279,2.3675,2.6007,3.5512,6.1429,3.5512,10.627m-4.9502-1.4528c-0.0359-2.7082-0.79816-4.8695-2.2868-6.4837-1.4707-1.6142-3.4257-2.4213-5.8649-2.4213-2.7621,0.000026-4.9771,0.78022-6.6451,2.3406-1.6501,1.5604-2.6007,3.7575-2.8518,6.5913l17.649-0.0269"/>
  </g>
  <g id="g3077" transform="matrix(1.0988763,0,0,1.0988763,-1.0916904,-3.7778406)">
   <path id="path22716" opacity="0.725" d="M40.697,21.627,64.692,15.402,81.111,26.597,50.325,13.884z" fill-rule="evenodd" stroke="#04A" stroke-width="0.89622492px" fill="#d5e5ff"/>
   <path id="path4263-4-2-3" style="marker-end:url(#b);" d="M63.736,57.977,50.324,13.88" stroke="#04A" stroke-width="1.34436929" fill="#04A"/>
   <path id="path4492" opacity="0.72457999" d="M63.736,57.977,40.689,22.153,64.684,15.406,81.104,26.602z" stroke="#04A" stroke-width="0.89622492" fill="#d5e5ff"/>
   <g id="g30" transform="matrix(1.2700701,0,0,1.2700701,-177.38721,-197.23107)" stroke="#04A" stroke-width="1.05850005" fill="#04A">
    <path id="path4263" style="marker-end:url(#d);" d="m189.85,200.94-18.14-28"/>
    <path id="path4263-8" style="marker-end:url(#a);" d="m189.85,200.94,13.675-24.703"/>
    <path id="path4263-4-2" style="marker-end:url(#c);" d="m189.85,200.94,0.74643-33.518"/>
   </g>
   <circle id="path4279" d="m 191.30211,200.24001 c 0,0.80197 -0.65013,1.4521 -1.4521,1.4521 -0.80198,0 -1.4521,-0.65013 -1.4521,-1.4521 0,-0.80198 0.65012,-1.4521 1.4521,-1.4521 0.80197,0 1.4521,0.65012 1.4521,1.4521 z" cx="189.85" cy="200.24" transform="matrix(1.2700701,0,0,1.2700701,-177.38721,-197.23107)" r="1.4521" fill="#04A"/>
  </g>
 </g>
</svg>
