<?xml version="1.0" encoding="UTF-8" standalone="no"?>
<!-- Created with Inkscape (http://www.inkscape.org/) -->
<svg id="svg2" xmlns:rdf="http://www.w3.org/1999/02/22-rdf-syntax-ns#" xmlns="http://www.w3.org/2000/svg" height="18mm" width="64mm" version="1.1" xmlns:cc="http://creativecommons.org/ns#" xmlns:dc="http://purl.org/dc/elements/1.1/" viewBox="0 0 226.77165 63.779527">
 <defs id="defs4">
  <marker id="b" refY="0" refX="0" overflow="visible" orient="auto">
   <path id="path9280-9-2" d="m5.77 0-8.65 5v-10l8.65 5z" fill-rule="evenodd" transform="scale(.4)" stroke="#04a" stroke-width="1pt" fill="#04a"/>
  </marker>
  <marker id="d" refY="0" refX="0" orient="auto" overflow="visible">
   <path id="path9198" d="m5.77 0-8.65 5v-10l8.65 5z" fill-rule="evenodd" transform="scale(.4)" stroke="#04a" stroke-width="1pt" fill="#04a"/>
  </marker>
  <marker id="a" refY="0" refX="0" orient="auto" overflow="visible">
   <path id="path9368" d="m5.77 0-8.65 5v-10l8.65 5z" fill-rule="evenodd" transform="scale(.4)" stroke="#04a" stroke-width="1pt" fill="#04a"/>
  </marker>
  <marker id="c" refY="0" refX="0" overflow="visible" orient="auto">
   <path id="path9280-9" d="m5.77 0-8.65 5v-10l8.65 5z" fill-rule="evenodd" transform="scale(.4)" stroke="#04a" stroke-width="1pt" fill="#04a"/>
  </marker>
 </defs>
 <metadata id="metadata7">
  <rdf:RDF>
   <cc:Work rdf:about="">
    <dc:format>image/svg+xml</dc:format>
    <dc:type rdf:resource="http://purl.org/dc/dcmitype/StillImage"/>
    <dc:title/>
   </cc:Work>
  </rdf:RDF>
 </metadata>
 <g id="layer1" transform="translate(-139.27 -79.885)">
  <flowRoot id="flowRoot3336" font-size="27.5px" xml:space="preserve" style="word-spacing:0px;letter-spacing:0px" line-height="125%" font-family="Sans" fill="#000000"><flowRegion id="flowRegion3338"><rect id="rect3340" height="186.88" width="570.74" y="181.61" x="39.396"/></flowRegion><flowPara id="flowPara3342"/></flowRoot>
  <g id="g4257">
   <g id="g4311" transform="matrix(1.2244 0 0 1.2244 -28.394 -37.094)">
    <text id="text3344" style="word-spacing:0px;letter-spacing:0px" xml:space="preserve" font-size="45px" line-height="125%" y="132.11322" x="137.38075" font-family="&apos;URW Gothic&apos;" fill="#000000"><tspan id="tspan3346" x="137.38075" y="132.11322">d   cone</tspan></text>
    <g id="g4302" transform="matrix(1.0373 0 0 1.0373 -7.9412 -65.544)">
     <g stroke="#04a">
      <path id="path22716" opacity=".725" d="m171.71 172.32 18.893-4.902 12.928 8.815-24.24-10.01z" fill-rule="evenodd" stroke-width=".70565px" fill="#d5e5ff"/>
      <path id="path4263-4-2-3" marker-end="url(#b)" d="m189.85 200.94-10.56-34.72" stroke-width="1.0585" fill="#04a"/>
      <path id="path4492" opacity=".72458" d="m189.85 200.94-18.146-28.206 18.893-5.3126 12.928 8.815z" stroke-width=".70565" fill="#d5e5ff"/>
     </g>
     <g fill="#04a">
      <g stroke="#04a" stroke-width="1.0585">
       <path id="path4263" marker-end="url(#d)" d="m189.85 200.94-18.14-28"/>
       <path id="path4263-8" marker-end="url(#a)" d="m189.85 200.94 13.675-24.703"/>
       <path id="path4263-4-2" marker-end="url(#c)" d="m189.85 200.94 0.74643-33.518"/>
      </g>
      <circle id="path4279" cx="189.85" cy="200.24" r="1.4521"/>
     </g>
    </g>
   </g>
  </g>
 </g>
</svg>
